<?xml version="1.0" encoding="UTF-8"?>
<!DOCTYPE svg PUBLIC "-//W3C//DTD SVG 1.1//EN" "http://www.w3.org/Graphics/SVG/1.1/DTD/svg11.dtd">
<!-- Creator: CorelDRAW X7 -->
<svg xmlns="http://www.w3.org/2000/svg" xml:space="preserve" width="160.791mm" height="42.295mm" version="1.1" style="shape-rendering:geometricPrecision; text-rendering:geometricPrecision; image-rendering:optimizeQuality; fill-rule:evenodd; clip-rule:evenodd"
viewBox="0 0 16079 4230"
 xmlns:xlink="http://www.w3.org/1999/xlink">
 <defs>
  <style type="text/css">
   <![CDATA[
    .str0 {stroke:#29B6FF;stroke-width:7.62}
    .fil0 {fill:#29B6FF}
   ]]>
  </style>
 </defs>
 <g id="Camada_x0020_1">
  <metadata id="CorelCorpID_0Corel-Layer"/>
  <g id="_1938356420400">
   <path class="fil0" d="M1021 2533c-418,-58 -598,-118 -525,-547 144,9 280,50 443,68 161,18 337,8 499,29 366,388 39,514 -417,450zm-221 -1378c-352,0 -784,-98 -800,292 120,131 198,108 334,211 -68,149 -204,258 -204,459l0 1950 1150 0 -4 -382 2132 -7c-165,-311 -299,-461 -403,-907 -107,-462 -67,-800 -10,-1263l-2082 9c44,-82 622,-836 702,-855l1998 0c83,-99 141,-214 209,-293 -262,-41 -1972,-21 -2351,-14 -57,99 -243,303 -334,402 -99,107 -243,282 -337,398z"/>
   <path class="fil0" d="M15318 2524c-5,377 -28,598 -252,768 -675,513 -1184,-310 -520,-556 226,-84 529,-132 772,-212zm-1710 -770l-20 187 702 -6c104,-289 183,-406 555,-397 309,8 628,210 393,478 -164,188 -1081,147 -1473,467 -467,382 -488,1686 899,1494 464,-64 523,-246 665,-304l39 314 706 0c5,-517 5,-1035 5,-1552 0,-501 -25,-1036 -334,-1253 -511,-359 -2026,-434 -2137,572z"/>
   <path class="fil0" d="M10288 2866l-758 1c-106,425 -417,563 -720,450 -549,-204 -578,-1536 -19,-1716 624,-201 680,423 797,455l714 0c-72,-776 -664,-1202 -1526,-1105 -803,90 -1159,660 -1145,1519 13,819 380,1426 1146,1512 399,44 809,-65 1041,-259 198,-165 462,-484 470,-857z"/>
   <path class="fil0 str0" d="M5079 518c1016,-146 1794,589 1921,1430 153,1008 -587,1852 -1452,1956 -1012,123 -1805,-592 -1930,-1460 -147,-1012 596,-1802 1461,-1926zm35 -319c-1049,100 -1945,1044 -1810,2237 118,1034 1057,1916 2247,1779 1031,-118 1909,-1050 1775,-2239 -117,-1034 -1035,-1888 -2212,-1777z"/>
   <path class="fil0" d="M4661 994c586,575 740,621 389,960 -134,129 -129,204 -366,207 -232,-104 -385,-415 -600,-535 -393,670 422,1201 501,1220 391,94 525,-138 802,190 83,97 142,180 230,265 109,104 154,153 229,259 337,-105 677,-419 777,-737l-496 -490c-342,-300 -102,-358 -194,-807 -19,-91 -362,-485 -448,-527 -220,-107 -621,-112 -824,-5z"/>
   <polygon class="fil0" points="11508,3977 11633,4000 12274,3996 12273,0 11508,4 "/>
   <polygon class="fil0" points="10521,3975 11287,3998 11286,926 10526,929 "/>
   <polygon class="fil0" points="12499,3996 13264,3996 13264,926 12511,926 "/>
   <polygon class="fil0" points="12500,715 13265,715 13264,0 12500,0 "/>
   <polygon class="fil0" points="10521,694 10645,719 11286,715 11287,0 10521,4 "/>
  </g>
 </g>
</svg>
