<?xml version="1.0" encoding="UTF-8"?>
<!DOCTYPE svg PUBLIC "-//W3C//DTD SVG 1.1//EN" "http://www.w3.org/Graphics/SVG/1.1/DTD/svg11.dtd">
<!-- Creator: CorelDRAW X7 -->
<svg xmlns="http://www.w3.org/2000/svg" xml:space="preserve" width="80.435mm" height="80.431mm" version="1.1" style="shape-rendering:geometricPrecision; text-rendering:geometricPrecision; image-rendering:optimizeQuality; fill-rule:evenodd; clip-rule:evenodd"
viewBox="0 0 8044 8043"
 xmlns:xlink="http://www.w3.org/1999/xlink">
 <defs>
  <style type="text/css">
   <![CDATA[
    .fil0 {fill:#29B6FF}
   ]]>
  </style>
 </defs>
 <g id="Camada_x0020_1">
  <metadata id="CorelCorpID_0Corel-Layer"/>
  <g id="_3269942343424">
   <path class="fil0" d="M6979 2131c13,30 39,65 56,95 19,32 37,62 55,95 82,145 129,249 193,404 31,74 52,147 81,222 7,34 24,79 34,114 12,38 22,78 32,118 19,76 42,171 52,251 9,14 34,251 38,292 9,106 14,218 13,325 -7,482 -104,956 -300,1390 -77,172 -140,284 -236,442 -72,119 -195,286 -283,390 -72,86 -166,188 -245,263l-88 82c-18,18 -28,24 -45,41l-139 116c-692,556 -1614,842 -2606,730 -531,-61 -1061,-268 -1483,-547 -69,-45 -136,-91 -198,-139l-142 -114c-17,-13 -29,-27 -46,-40l-62 -54c-22,-25 -44,-37 -63,-59 -33,-39 -91,-87 -121,-122 -72,-83 -156,-169 -223,-261 -163,-225 -235,-318 -373,-597 -222,-445 -369,-995 -362,-1574 10,-762 245,-1431 655,-2008 99,-140 215,-277 329,-397l45 -44c32,-32 31,-35 78,-76l96 -87c7,-5 7,-7 15,-14l14 -15 19 -12c7,-6 9,-8 15,-14 10,-9 19,-15 31,-25 22,-18 41,-33 63,-51 738,-583 1737,-848 2688,-697 633,101 1157,350 1610,700 44,34 87,70 128,104l266 253 136 153c17,20 35,42 53,64 16,20 32,41 50,64 17,23 33,43 49,67l121 172zm-5950 -787l-192 233c-14,18 -24,31 -38,48 -13,18 -22,32 -35,50 -103,135 -224,329 -300,483 -6,10 -9,17 -14,27l-43 87c-97,194 -185,414 -242,622 -38,135 -73,280 -100,421 -18,99 -34,200 -42,302 -6,81 -17,163 -17,243 0,33 -2,55 -4,81 -2,41 -4,136 1,174 8,78 6,165 15,245 13,129 25,262 50,384 10,47 18,94 29,142 12,50 21,92 33,141 35,138 78,262 125,395 44,123 99,246 157,362 57,113 116,226 184,332 33,53 65,108 101,158l343 437c61,63 124,139 191,195 39,33 73,76 112,107 12,9 14,10 24,21 54,53 154,128 214,176 32,26 65,49 100,74l152 104c105,69 215,134 326,193 20,11 40,20 59,30l145 70c151,73 313,130 473,181 248,79 594,153 872,167l160 11c43,6 125,1 173,1 379,0 776,-53 1129,-166 147,-47 307,-95 446,-163 39,-19 80,-33 120,-54 40,-20 75,-37 114,-57 113,-56 227,-120 330,-189 17,-11 34,-21 52,-33 103,-69 205,-141 300,-220 9,-7 17,-13 25,-19 10,-8 15,-13 25,-21 16,-13 30,-24 46,-39l46 -39c44,-34 181,-166 220,-210l303 -346 94 -125c62,-83 119,-171 172,-259 22,-37 42,-73 64,-110l60 -111c195,-389 313,-717 397,-1162 19,-101 29,-203 42,-307 21,-167 17,-331 17,-498 1,-77 -10,-240 -22,-323 -7,-54 -12,-102 -19,-155 -29,-195 -73,-382 -127,-567 -13,-47 -28,-90 -42,-133 -56,-166 -125,-333 -204,-490 -5,-11 -50,-106 -61,-110 -4,-26 -40,-80 -54,-104 -42,-75 -136,-227 -182,-289 -11,-15 -21,-31 -31,-45 -11,-16 -22,-30 -33,-45 -22,-32 -44,-59 -68,-90l-290 -335 -116 -116c-44,-44 -117,-104 -164,-148l-174 -139c-164,-125 -253,-180 -423,-283 -16,-10 -32,-19 -49,-28l-153 -83c-17,-8 -36,-15 -53,-24l-160 -75c-75,-31 -145,-62 -224,-89 -224,-76 -253,-84 -483,-142 -43,-11 -86,-19 -130,-28 -111,-21 -307,-50 -415,-56 -92,-4 -113,-12 -220,-12 -27,0 -45,-4 -77,-4 -106,0 -203,3 -304,8 -46,3 -95,10 -142,12 -99,6 -312,44 -408,63 -89,17 -168,40 -252,61 -142,35 -332,106 -466,159l-215 98c-133,66 -278,141 -402,222l-407 296c-15,12 -28,24 -42,35 -9,7 -11,10 -19,17l-362 349c-8,9 -11,14 -21,24z"/>
   <path class="fil0" d="M4909 4989l156 408c16,-27 327,-844 336,-867 221,-582 449,-1160 670,-1741l250 -651c15,-39 26,-37 -29,-94 -19,-20 -53,-66 -73,-81 -27,-29 -49,-53 -76,-79l-242 -217c-51,-40 -299,-226 -362,-248l-441 1217c-113,303 -218,610 -331,911l-108 302 -1247 -1c-14,-49 -38,-104 -56,-155 -18,-51 -36,-101 -55,-152l-664 -1829c-13,-36 -107,-287 -108,-303 -29,11 -93,53 -121,72 -40,26 -76,50 -114,76 -88,62 -136,104 -215,167 -19,15 -33,29 -51,46 -10,8 -18,13 -27,22 -45,46 -127,120 -168,165l-132 151c-27,33 -27,19 -10,64l396 1028c140,369 285,733 425,1101l319 827c17,46 35,92 52,137 13,32 37,107 53,133l459 -1190 1211 0 303 781z"/>
   <path class="fil0" d="M6978 3434c-11,-79 -37,-174 -58,-249 -17,-58 -50,-176 -74,-224 -12,11 -1032,2687 -1075,2796 -8,22 -351,906 -357,935 86,-38 311,-183 379,-235 145,-111 288,-226 411,-360 13,-15 22,-27 37,-41l73 -81c236,-285 411,-572 541,-928 56,-153 101,-315 132,-486 33,-182 50,-376 48,-567 -2,-161 -17,-413 -57,-560z"/>
   <path class="fil0" d="M2569 6654l9 5 -273 -712c-10,-40 -552,-1441 -559,-1460l-420 -1094c-23,-61 -47,-120 -70,-181l-66 -174c-7,-14 -1,-3 -7,-10 -42,59 -120,435 -136,530 -32,202 -42,424 -30,631 31,556 212,1069 504,1506 95,142 194,260 295,374l124 123c17,15 27,28 44,42 65,54 100,92 182,155 106,81 282,207 403,265z"/>
   <path class="fil0" d="M3577 5943c-18,38 -33,82 -48,121l-138 361c-31,81 -62,160 -93,240l-70 181c-10,24 -8,53 -9,80l178 42c379,87 822,82 1206,11 44,-8 144,-26 181,-42 5,-70 -52,-189 -76,-252l-650 -1683 -57 -152c-15,18 -93,232 -109,274 -35,92 -70,181 -105,272 -35,93 -70,182 -106,276 -24,62 -88,219 -104,271z"/>
   <path class="fil0" d="M3272 1104l763 2107 761 -2102c-443,-112 -891,-133 -1346,-44 -58,11 -124,32 -178,39z"/>
  </g>
 </g>
</svg>
